<svg width="359" height="1895" viewBox="0 0 359 1895" fill="none" xmlns="http://www.w3.org/2000/svg">
<g filter="url(#filter0_dd_480_36)">
<path d="M28.1494 17C28.1494 119.5 28.1494 74.7639 28.1494 158.943C28.1494 243.123 96.3903 311.364 180.57 311.364C265.248 311.364 332.99 379.488 332.99 463.784C332.99 547.964 265.173 616.205 180.993 616.205C95.4684 616.205 28.1492 684.329 28.1494 768.625C28.1495 852.805 96.3152 921.045 180.57 921.045C264.824 921.045 332.99 989.634 332.99 1073.47C332.99 1157.3 265.248 1225.89 180.57 1225.89C95.8918 1225.89 28.1494 1294.9 28.1494 1378.73C28.1494 1633 28 1648.5 28 1878" stroke="url(#paint0_linear_480_36)" stroke-width="20"/>
</g>
<circle cx="329" cy="457" r="20" fill="#A0A0A0"/>
<path d="M324.438 446.123C324.438 445.348 325.065 444.72 325.841 444.72H331.455C332.231 444.72 332.859 445.348 332.859 446.123V447.527H334.964C336.126 447.527 337.069 448.469 337.069 449.632V455.245L339.016 455.894C340.034 456.232 340.31 457.539 339.52 458.258L335.091 462.324C334.38 462.732 333.569 462.986 332.859 462.986C331.999 462.986 331.069 462.648 330.262 462.091C329.297 461.411 328.004 461.411 327.034 462.091C326.28 462.609 325.368 462.986 324.438 462.986C323.728 462.986 322.916 462.732 322.206 462.319L317.776 458.258C316.987 457.539 317.265 456.232 318.28 455.894L320.228 455.206V449.592C320.228 448.469 321.171 447.487 322.333 447.487H324.438V446.123ZM323.035 454.311L327.762 452.732C328.337 452.544 328.96 452.544 329.534 452.732L334.262 454.311V450.333H323.035V454.311ZM332.859 464.367C334.038 464.367 335.288 463.894 336.253 463.223H336.257C336.779 462.85 337.485 462.881 337.977 463.297C338.604 463.819 339.402 464.218 340.196 464.402C340.95 464.578 341.419 465.337 341.244 466.091C341.069 466.845 340.275 467.315 339.555 467.139C338.481 466.885 337.591 466.411 337.003 466.043C335.731 466.722 334.306 467.174 332.859 467.174C331.46 467.174 330.201 466.74 329.332 466.345C329.074 466.231 328.846 466.113 328.648 466.008C328.451 466.113 328.223 466.231 327.964 466.345C327.096 466.74 325.837 467.174 324.438 467.174C322.951 467.174 321.565 466.722 320.294 466.043C319.707 466.411 318.815 466.885 317.74 467.139C316.985 467.315 316.23 466.845 316.055 466.091C315.879 465.337 316.348 464.578 317.103 464.402C317.896 464.218 318.691 463.819 319.32 463.297C319.809 462.881 320.517 462.85 321.039 463.223H321.044C322.013 463.894 323.258 464.367 324.438 464.367C325.644 464.367 326.85 463.903 327.837 463.223C328.324 462.876 328.973 462.876 329.46 463.223C330.407 463.903 331.653 464.367 332.859 464.367Z" fill="white"/>
<circle cx="28.5" cy="20.5" r="17.5" fill="#E8331A"/>
<circle cx="28.5" cy="1866.5" r="17.5" fill="#E8331A"/>
<defs>
<filter id="filter0_dd_480_36" x="0.217617" y="0.911177" width="358.015" height="1894.02" filterUnits="userSpaceOnUse" color-interpolation-filters="sRGB">
<feFlood flood-opacity="0" result="BackgroundImageFix"/>
<feColorMatrix in="SourceAlpha" type="matrix" values="0 0 0 0 0 0 0 0 0 0 0 0 0 0 0 0 0 0 127 0" result="hardAlpha"/>
<feOffset dx="5.08068" dy="6.77424"/>
<feGaussianBlur stdDeviation="5.08068"/>
<feComposite in2="hardAlpha" operator="out"/>
<feColorMatrix type="matrix" values="0 0 0 0 0.545833 0 0 0 0 0.545833 0 0 0 0 0.545833 0 0 0 0.25 0"/>
<feBlend mode="normal" in2="BackgroundImageFix" result="effect1_dropShadow_480_36"/>
<feColorMatrix in="SourceAlpha" type="matrix" values="0 0 0 0 0 0 0 0 0 0 0 0 0 0 0 0 0 0 127 0" result="hardAlpha"/>
<feOffset dx="-8.4678" dy="-6.77424"/>
<feGaussianBlur stdDeviation="4.65729"/>
<feComposite in2="hardAlpha" operator="out"/>
<feColorMatrix type="matrix" values="0 0 0 0 1 0 0 0 0 1 0 0 0 0 1 0 0 0 1 0"/>
<feBlend mode="normal" in2="effect1_dropShadow_480_36" result="effect2_dropShadow_480_36"/>
<feBlend mode="normal" in="SourceGraphic" in2="effect2_dropShadow_480_36" result="shape"/>
</filter>
<linearGradient id="paint0_linear_480_36" x1="180.495" y1="17" x2="180.495" y2="1878" gradientUnits="userSpaceOnUse">
<stop stop-color="#E8331A"/>
<stop offset="0.128125" stop-color="#EC3F5F"/>
<stop offset="0.253125" stop-color="#EFC146"/>
<stop offset="0.253225" stop-color="#EFC146"/>
<stop offset="0.3625" stop-color="#E77162"/>
<stop offset="0.383333" stop-color="#E66267"/>
<stop offset="0.508333" stop-color="#7D348A"/>
<stop offset="0.638542" stop-color="#7261B8"/>
<stop offset="0.773958" stop-color="#404199"/>
<stop offset="0.867708" stop-color="#802263"/>
<stop offset="0.925" stop-color="#B0003D"/>
<stop offset="1" stop-color="#E8331A"/>
</linearGradient>
</defs>
</svg>
