<svg width="59" height="46" viewBox="0 0 59 46" fill="none" xmlns="http://www.w3.org/2000/svg">
<path d="M0 46V42.2588C5.72546 40.3315 10.1446 37.3272 13.2575 33.2458C16.4259 29.2212 18.0102 24.9415 18.0102 20.4067C18.0102 19.3296 17.76 18.4227 17.2598 17.6858C16.8706 17.1756 16.4815 16.9205 16.0924 16.9205C15.481 16.9205 14.1469 17.4874 12.0902 18.6211C11.0896 19.1312 10.0334 19.3863 8.92171 19.3863C6.19795 19.3863 4.03005 18.5644 2.41803 16.9205C0.806011 15.2766 0 13.0092 0 10.1183C0 7.34073 1.02836 4.95995 3.08508 2.97597C5.19738 0.99199 7.75438 0 10.7561 0C14.4248 0 17.6767 1.64387 20.5116 4.93161C23.4021 8.16266 24.8474 12.4707 24.8474 17.8558C24.8474 23.6944 22.8462 29.1078 18.844 34.0961C14.8973 39.1411 8.61598 43.1091 0 46Z" fill="#E8331A"/>
<path d="M34.1526 46V42.2588C39.8781 40.3315 44.2972 37.3272 47.4101 33.2458C50.5786 29.2212 52.1628 24.9415 52.1628 20.4067C52.1628 19.3296 51.9127 18.4227 51.4124 17.6858C51.0233 17.1756 50.6342 16.9205 50.2451 16.9205C49.6336 16.9205 48.2995 17.4874 46.2428 18.6211C45.2422 19.1312 44.1861 19.3863 43.0743 19.3863C40.3506 19.3863 38.1827 18.5644 36.5707 16.9205C34.9586 15.2766 34.1526 13.0092 34.1526 10.1183C34.1526 7.34073 35.181 4.95995 37.2377 2.97597C39.35 0.99199 41.907 0 44.9087 0C48.5774 0 51.8293 1.64387 54.6642 4.93161C57.5547 8.16266 59 12.4707 59 17.8558C59 23.6944 56.9989 29.1078 52.9966 34.0961C49.0499 39.1411 42.7686 43.1091 34.1526 46Z" fill="#E8331A"/>
</svg>
