<svg width="95" height="13" viewBox="0 0 95 13" fill="none" xmlns="http://www.w3.org/2000/svg">
<path d="M5.19003 0.97582H5.88207V6.5517H5.19003V4.07442H1.77105V6.5517H1.07901V0.97582H1.77105V3.43717H5.19003V0.97582Z" fill="#BCBCBC"/>
<path d="M7.93017 0.97582H11.8188V1.61306H8.62221V3.42124H11.5716V4.05849H8.62221V5.91446H11.8682V6.5517H7.93017V0.97582Z" fill="#BCBCBC"/>
<path d="M14.2666 6.5517H13.5745V0.97582H15.8319C16.2108 0.97582 16.5541 1.02627 16.8617 1.12717C17.1693 1.22275 17.4329 1.4033 17.6526 1.66882C17.8778 1.92903 17.9904 2.26093 17.9904 2.66452C17.9904 3.14245 17.8476 3.51417 17.562 3.77969C17.2764 4.04521 16.9056 4.2178 16.4498 4.29745L18.4023 6.5517H17.5372L15.6506 4.35321H14.2666V6.5517ZM14.2666 1.61306V3.71597H15.8648C16.2713 3.71597 16.609 3.63631 16.8782 3.477C17.1528 3.31238 17.2901 3.04155 17.2901 2.66452C17.2901 2.28217 17.1528 2.01134 16.8782 1.85203C16.609 1.69272 16.2713 1.61306 15.8648 1.61306H14.2666Z" fill="#BCBCBC"/>
<path d="M19.5843 4.82318C19.458 4.48332 19.3948 4.13018 19.3948 3.76376C19.3948 3.39735 19.458 3.04421 19.5843 2.70434C19.7161 2.36448 19.9029 2.05913 20.1445 1.78831C20.3862 1.51217 20.702 1.29179 21.092 1.12717C21.4819 0.962544 21.9213 0.880233 22.4101 0.880233C22.899 0.880233 23.3383 0.962544 23.7283 1.12717C24.1183 1.29179 24.4341 1.51217 24.6757 1.78831C24.9174 2.05913 25.1014 2.36448 25.2277 2.70434C25.3595 3.04421 25.4254 3.39735 25.4254 3.76376C25.4254 4.13018 25.3595 4.48332 25.2277 4.82318C25.1014 5.16304 24.9174 5.47104 24.6757 5.74718C24.4341 6.01801 24.1183 6.23574 23.7283 6.40036C23.3383 6.56498 22.899 6.64729 22.4101 6.64729C21.9213 6.64729 21.4819 6.56498 21.092 6.40036C20.702 6.23574 20.3862 6.01801 20.1445 5.74718C19.9029 5.47104 19.7161 5.16304 19.5843 4.82318ZM24.5769 4.60014C24.6757 4.33463 24.7252 4.05583 24.7252 3.76376C24.7252 3.47169 24.6757 3.1929 24.5769 2.92738C24.4835 2.66186 24.3434 2.42289 24.1567 2.21048C23.9755 1.99807 23.7338 1.83079 23.4317 1.70865C23.1296 1.5812 22.7891 1.51748 22.4101 1.51748C22.0312 1.51748 21.6906 1.5812 21.3886 1.70865C21.0865 1.83079 20.8421 1.99807 20.6553 2.21048C20.4741 2.42289 20.334 2.66186 20.2352 2.92738C20.1418 3.1929 20.0951 3.47169 20.0951 3.76376C20.0951 4.05583 20.1418 4.33463 20.2352 4.60014C20.334 4.86566 20.4741 5.10463 20.6553 5.31704C20.8421 5.52946 21.0865 5.69939 21.3886 5.82684C21.6906 5.94898 22.0312 6.01005 22.4101 6.01005C22.7891 6.01005 23.1296 5.94898 23.4317 5.82684C23.7338 5.69939 23.9755 5.52946 24.1567 5.31704C24.3434 5.10463 24.4835 4.86566 24.5769 4.60014Z" fill="#BCBCBC"/>
<path d="M28.4512 7.42791H26.9106V0.0996094H28.4512V0.736854H27.6026V6.79067H28.4512V7.42791Z" fill="#BCBCBC"/>
<path d="M29.9766 0.97582H30.6686V6.5517H29.9766V0.97582Z" fill="#BCBCBC"/>
<path d="M33.4086 6.5517H32.7165V0.97582H33.3591L36.8275 5.42856V0.97582H37.5196V6.5517H36.877L33.4086 2.091V6.5517Z" fill="#BCBCBC"/>
<path d="M40.581 7.42791H39.0404V6.79067H39.889V0.736854H39.0404V0.0996094H40.581V7.42791Z" fill="#BCBCBC"/>
<path d="M47.8075 0.97582H48.4007V6.5517H47.7086V2.24234L45.6408 5.23739H45.2124L43.1445 2.24234V6.5517H42.4524V0.97582H43.0456L45.4266 4.41694L47.8075 0.97582Z" fill="#BCBCBC"/>
<path d="M50.5035 6.5517H49.7538L52.2666 0.97582H53.0328L55.5373 6.5517H54.7958L54.2026 5.20553H51.0967L50.5035 6.5517ZM52.5549 1.87593L51.3686 4.58421H53.9308L52.7362 1.87593C52.7252 1.84938 52.695 1.77769 52.6456 1.66086C52.5961 1.783 52.5659 1.85469 52.5549 1.87593Z" fill="#BCBCBC"/>
<path d="M57.587 6.5517H56.895V0.97582H59.1523C59.5313 0.97582 59.8746 1.02627 60.1821 1.12717C60.4897 1.22275 60.7533 1.4033 60.973 1.66882C61.1982 1.92903 61.3108 2.26093 61.3108 2.66452C61.3108 3.14245 61.168 3.51417 60.8824 3.77969C60.5968 4.04521 60.2261 4.2178 59.7702 4.29745L61.7227 6.5517H60.8577L58.9711 4.35321H57.587V6.5517ZM57.587 1.61306V3.71597H59.1853C59.5917 3.71597 59.9295 3.63631 60.1986 3.477C60.4732 3.31238 60.6105 3.04155 60.6105 2.66452C60.6105 2.28217 60.4732 2.01134 60.1986 1.85203C59.9295 1.69272 59.5917 1.61306 59.1853 1.61306H57.587Z" fill="#BCBCBC"/>
<path d="M63.8508 6.5517H63.1588V0.97582H63.8508V3.38938H65.1608L66.8991 0.97582H67.69L65.7292 3.69207L67.863 6.5517H67.0721L65.1855 4.02662H63.8508V6.5517Z" fill="#BCBCBC"/>
<path d="M69.1732 0.97582H73.0618V1.61306H69.8653V3.42124H72.8147V4.05849H69.8653V5.91446H73.1113V6.5517H69.1732V0.97582Z" fill="#BCBCBC"/>
<path d="M74.175 0.97582H78.9204V1.61306H76.8937V6.5517H76.2017V1.61306H74.175V0.97582Z" fill="#BCBCBC"/>
<path d="M80.3252 0.97582H81.0172V6.5517H80.3252V0.97582Z" fill="#BCBCBC"/>
<path d="M83.7572 6.5517H83.0651V0.97582H83.7077L87.1761 5.42856V0.97582H87.8682V6.5517H87.2256L83.7572 2.091V6.5517Z" fill="#BCBCBC"/>
<path d="M89.5373 3.76376C89.5373 3.15307 89.6883 2.62469 89.9904 2.17862C90.2925 1.72724 90.6715 1.39799 91.1273 1.19089C91.5832 0.983786 92.0748 0.880233 92.602 0.880233C93.2391 0.880233 93.8158 1.00503 94.3321 1.25461V1.92372C93.8872 1.65289 93.3435 1.51748 92.7009 1.51748C92.3878 1.51748 92.0885 1.56262 91.8029 1.65289C91.5173 1.73786 91.2537 1.86796 91.012 2.0432C90.7758 2.21314 90.5863 2.44679 90.4435 2.74417C90.3062 3.04155 90.2376 3.38142 90.2376 3.76376C90.2376 4.16735 90.309 4.52049 90.4518 4.82318C90.5946 5.12056 90.7868 5.35422 91.0285 5.52415C91.2701 5.68877 91.531 5.81091 91.8111 5.89056C92.0967 5.97022 92.3988 6.01005 92.7174 6.01005C93.1293 6.01005 93.4836 5.94101 93.7801 5.80294V3.58852H94.4722V6.27291C93.912 6.5225 93.3105 6.64729 92.6679 6.64729C92.256 6.64729 91.8688 6.59419 91.5063 6.48798C91.1438 6.38177 90.8115 6.21981 90.5095 6.00208C90.2129 5.77905 89.9767 5.47635 89.8009 5.09401C89.6252 4.71166 89.5373 4.26825 89.5373 3.76376Z" fill="#BCBCBC"/>
<path d="M1.67888 12.6138H0.940674V9.10234H1.67888V9.40768H1.27227V12.3085H1.67888V12.6138Z" fill="#BCBCBC"/>
<path d="M2.51639 9.52219H3.42435C3.89543 9.52219 4.25598 9.6456 4.50599 9.89242C4.75864 10.1367 4.88497 10.4586 4.88497 10.8581C4.88497 11.2576 4.75864 11.5807 4.50599 11.8276C4.25598 12.0718 3.89543 12.194 3.42435 12.194H2.51639V9.52219ZM4.26124 11.6176C4.45336 11.437 4.54942 11.1838 4.54942 10.8581C4.54942 10.5324 4.45336 10.2792 4.26124 10.0985C4.07176 9.91787 3.79279 9.82753 3.42435 9.82753H2.84799V11.8886H3.42435C3.79279 11.8886 4.07176 11.7983 4.26124 11.6176Z" fill="#BCBCBC"/>
<path d="M5.79403 9.52219H6.12563V12.194H5.79403V9.52219Z" fill="#BCBCBC"/>
<path d="M7.03192 10.8581C7.03192 10.5655 7.10429 10.3123 7.24904 10.0985C7.39378 9.88224 7.57537 9.72448 7.79381 9.62524C8.01224 9.52601 8.24778 9.47639 8.50043 9.47639C8.80572 9.47639 9.08205 9.53618 9.32943 9.65578V9.97639C9.11626 9.84662 8.85572 9.78173 8.5478 9.78173C8.39779 9.78173 8.25436 9.80336 8.11751 9.84662C7.98066 9.88733 7.85434 9.94967 7.73854 10.0336C7.62538 10.1151 7.53458 10.227 7.46616 10.3695C7.40036 10.512 7.36746 10.6749 7.36746 10.8581C7.36746 11.0515 7.40168 11.2207 7.4701 11.3657C7.53853 11.5082 7.63064 11.6202 7.74644 11.7016C7.86223 11.7805 7.98724 11.839 8.12146 11.8772C8.25831 11.9153 8.40306 11.9344 8.5557 11.9344C8.75308 11.9344 8.92283 11.9013 9.06494 11.8352V10.7741H9.39654V12.0604C9.1281 12.18 8.83993 12.2398 8.53201 12.2398C8.33463 12.2398 8.14909 12.2143 7.9754 12.1634C7.8017 12.1125 7.64248 12.0349 7.49774 11.9306C7.35562 11.8237 7.24246 11.6787 7.15824 11.4955C7.07402 11.3123 7.03192 11.0998 7.03192 10.8581Z" fill="#BCBCBC"/>
<path d="M10.3601 9.52219H10.6917V12.194H10.3601V9.52219Z" fill="#BCBCBC"/>
<path d="M11.4716 9.52219H13.7455V9.82753H12.7743V12.194H12.4427V9.82753H11.4716V9.52219Z" fill="#BCBCBC"/>
<path d="M14.2327 12.194H13.8735L15.0775 9.52219H15.4447L16.6447 12.194H16.2895L16.0052 11.5489H14.517L14.2327 12.194ZM15.2157 9.95349L14.6472 11.2512H15.875L15.3026 9.95349C15.2973 9.94077 15.2828 9.90642 15.2591 9.85044C15.2354 9.90896 15.221 9.94331 15.2157 9.95349Z" fill="#BCBCBC"/>
<path d="M17.4019 9.52219H17.7335V11.8886H19.2652V12.194H17.4019V9.52219Z" fill="#BCBCBC"/>
<path d="M21.1898 12.194H20.8305L22.0345 9.52219H22.4017L23.6018 12.194H23.2465L22.9622 11.5489H21.474L21.1898 12.194ZM22.1727 9.95349L21.6043 11.2512H22.832L22.2596 9.95349C22.2543 9.94077 22.2398 9.90642 22.2161 9.85044C22.1925 9.90896 22.178 9.94331 22.1727 9.95349Z" fill="#BCBCBC"/>
<path d="M24.3589 9.52219H25.2668C25.7379 9.52219 26.0985 9.6456 26.3485 9.89242C26.6011 10.1367 26.7275 10.4586 26.7275 10.8581C26.7275 11.2576 26.6011 11.5807 26.3485 11.8276C26.0985 12.0718 25.7379 12.194 25.2668 12.194H24.3589V9.52219ZM26.1037 11.6176C26.2959 11.437 26.3919 11.1838 26.3919 10.8581C26.3919 10.5324 26.2959 10.2792 26.1037 10.0985C25.9143 9.91787 25.6353 9.82753 25.2668 9.82753H24.6905V11.8886H25.2668C25.6353 11.8886 25.9143 11.7983 26.1037 11.6176Z" fill="#BCBCBC"/>
<path d="M27.6365 9.52219H28.5445C29.0156 9.52219 29.3761 9.6456 29.6261 9.89242C29.8788 10.1367 30.0051 10.4586 30.0051 10.8581C30.0051 11.2576 29.8788 11.5807 29.6261 11.8276C29.3761 12.0718 29.0156 12.194 28.5445 12.194H27.6365V9.52219ZM29.3814 11.6176C29.5735 11.437 29.6696 11.1838 29.6696 10.8581C29.6696 10.5324 29.5735 10.2792 29.3814 10.0985C29.1919 9.91787 28.9129 9.82753 28.5445 9.82753H27.9681V11.8886H28.5445C28.9129 11.8886 29.1919 11.7983 29.3814 11.6176Z" fill="#BCBCBC"/>
<path d="M30.9142 9.52219H31.2458V12.194H30.9142V9.52219Z" fill="#BCBCBC"/>
<path d="M32.1481 10.8772C32.1481 10.582 32.2205 10.3263 32.3652 10.11C32.51 9.89115 32.6902 9.73084 32.9061 9.62906C33.1219 9.52728 33.3534 9.47639 33.6008 9.47639C33.8851 9.47639 34.1443 9.53618 34.3785 9.65578V9.97639C34.1785 9.84662 33.9377 9.78173 33.6561 9.78173C33.3403 9.78173 33.0666 9.87588 32.835 10.0642C32.6034 10.2499 32.4863 10.5209 32.4837 10.8772C32.4837 11.1036 32.5429 11.2996 32.6613 11.465C32.7824 11.6303 32.9297 11.7499 33.1034 11.8237C33.2798 11.8975 33.4679 11.9344 33.6679 11.9344C33.9653 11.9344 34.2088 11.8695 34.3983 11.7398V12.0604C34.1588 12.18 33.8916 12.2398 33.5969 12.2398C33.4206 12.2398 33.2469 12.2105 33.0758 12.152C32.9047 12.0909 32.7495 12.0057 32.61 11.8963C32.4705 11.7843 32.3586 11.6405 32.2744 11.465C32.1902 11.2868 32.1481 11.0909 32.1481 10.8772Z" fill="#BCBCBC"/>
<path d="M34.968 9.52219H37.2418V9.82753H36.2707V12.194H35.9391V9.82753H34.968V9.52219Z" fill="#BCBCBC"/>
<path d="M38.0215 9.52219H38.3531V12.194H38.0215V9.52219Z" fill="#BCBCBC"/>
<path d="M39.3463 11.3657C39.2857 11.2029 39.2555 11.0337 39.2555 10.8581C39.2555 10.6825 39.2857 10.5133 39.3463 10.3504C39.4094 10.1876 39.4989 10.0413 39.6147 9.91151C39.7305 9.77919 39.8818 9.67359 40.0687 9.59471C40.2555 9.51583 40.4661 9.47639 40.7003 9.47639C40.9345 9.47639 41.1451 9.51583 41.3319 9.59471C41.5188 9.67359 41.6701 9.77919 41.7859 9.91151C41.9017 10.0413 41.9898 10.1876 42.0504 10.3504C42.1135 10.5133 42.1451 10.6825 42.1451 10.8581C42.1451 11.0337 42.1135 11.2029 42.0504 11.3657C41.9898 11.5286 41.9017 11.6762 41.7859 11.8085C41.6701 11.9382 41.5188 12.0426 41.3319 12.1214C41.1451 12.2003 40.9345 12.2398 40.7003 12.2398C40.4661 12.2398 40.2555 12.2003 40.0687 12.1214C39.8818 12.0426 39.7305 11.9382 39.6147 11.8085C39.4989 11.6762 39.4094 11.5286 39.3463 11.3657ZM41.7385 11.2588C41.7859 11.1316 41.8096 10.998 41.8096 10.8581C41.8096 10.7181 41.7859 10.5845 41.7385 10.4573C41.6938 10.3301 41.6267 10.2156 41.5372 10.1138C41.4503 10.012 41.3345 9.93186 41.1898 9.87334C41.0451 9.81227 40.8819 9.78173 40.7003 9.78173C40.5187 9.78173 40.3555 9.81227 40.2108 9.87334C40.066 9.93186 39.9489 10.012 39.8594 10.1138C39.7726 10.2156 39.7055 10.3301 39.6581 10.4573C39.6134 10.5845 39.591 10.7181 39.591 10.8581C39.591 10.998 39.6134 11.1316 39.6581 11.2588C39.7055 11.3861 39.7726 11.5006 39.8594 11.6024C39.9489 11.7041 40.066 11.7856 40.2108 11.8466C40.3555 11.9052 40.5187 11.9344 40.7003 11.9344C40.8819 11.9344 41.0451 11.9052 41.1898 11.8466C41.3345 11.7856 41.4503 11.7041 41.5372 11.6024C41.6267 11.5006 41.6938 11.3861 41.7385 11.2588Z" fill="#BCBCBC"/>
<path d="M43.3818 12.194H43.0502V9.52219H43.3581L45.02 11.6558V9.52219H45.3516V12.194H45.0437L43.3818 10.0565V12.194Z" fill="#BCBCBC"/>
<path d="M46.9252 12.6138H46.187V12.3085H46.5936V9.40768H46.187V9.10234H46.9252V12.6138Z" fill="#BCBCBC"/>
<path d="M51.8407 9.52219H52.1249V12.194H51.7933V10.1291L50.8024 11.5642H50.5972L49.6063 10.1291V12.194H49.2747V9.52219H49.5589L50.6998 11.1711L51.8407 9.52219Z" fill="#BCBCBC"/>
<path d="M53.2391 12.194H52.8799L54.0839 9.52219H54.451L55.6511 12.194H55.2958L55.0116 11.5489H53.5233L53.2391 12.194ZM54.2221 9.95349L53.6536 11.2512H54.8813L54.3089 9.95349C54.3037 9.94077 54.2892 9.90642 54.2655 9.85044C54.2418 9.90896 54.2273 9.94331 54.2221 9.95349Z" fill="#BCBCBC"/>
<path d="M56.7398 12.194H56.4083V9.52219H57.4899C57.6715 9.52219 57.836 9.54636 57.9834 9.59471C58.1307 9.64051 58.2571 9.72703 58.3623 9.85425C58.4702 9.97894 58.5242 10.138 58.5242 10.3314C58.5242 10.5604 58.4557 10.7385 58.3189 10.8657C58.182 10.9929 58.0044 11.0756 57.786 11.1138L58.7216 12.194H58.3071L57.4031 11.1405H56.7398V12.194ZM56.7398 9.82753V10.8352H57.5057C57.7004 10.8352 57.8623 10.797 57.9912 10.7207C58.1228 10.6418 58.1886 10.512 58.1886 10.3314C58.1886 10.1481 58.1228 10.0184 57.9912 9.94204C57.8623 9.8657 57.7004 9.82753 57.5057 9.82753H56.7398Z" fill="#BCBCBC"/>
<path d="M59.8479 12.194H59.5163V9.52219H59.8479V10.6787H60.4755L61.3085 9.52219H61.6875L60.7479 10.8237L61.7704 12.194H61.3914L60.4874 10.984H59.8479V12.194Z" fill="#BCBCBC"/>
<path d="M62.5048 9.52219H64.368V9.82753H62.8364V10.694H64.2496V10.9993H62.8364V11.8886H64.3917V12.194H62.5048V9.52219Z" fill="#BCBCBC"/>
<path d="M65.008 9.52219H67.2819V9.82753H66.3107V12.194H65.9791V9.82753H65.008V9.52219Z" fill="#BCBCBC"/>
<path d="M68.0616 9.52219H68.3932V12.194H68.0616V9.52219Z" fill="#BCBCBC"/>
<path d="M69.8126 12.194H69.481V9.52219H69.789L71.4509 11.6558V9.52219H71.7825V12.194H71.4746L69.8126 10.0565V12.194Z" fill="#BCBCBC"/>
<path d="M72.6889 10.8581C72.6889 10.5655 72.7613 10.3123 72.906 10.0985C73.0508 9.88224 73.2323 9.72448 73.4508 9.62524C73.6692 9.52601 73.9048 9.47639 74.1574 9.47639C74.4627 9.47639 74.739 9.53618 74.9864 9.65578V9.97639C74.7732 9.84662 74.5127 9.78173 74.2048 9.78173C74.0548 9.78173 73.9113 9.80336 73.7745 9.84662C73.6376 9.88733 73.5113 9.94967 73.3955 10.0336C73.2823 10.1151 73.1916 10.227 73.1231 10.3695C73.0573 10.512 73.0244 10.6749 73.0244 10.8581C73.0244 11.0515 73.0587 11.2207 73.1271 11.3657C73.1955 11.5082 73.2876 11.6202 73.4034 11.7016C73.5192 11.7805 73.6442 11.839 73.7784 11.8772C73.9153 11.9153 74.06 11.9344 74.2127 11.9344C74.41 11.9344 74.5798 11.9013 74.7219 11.8352V10.7741H75.0535V12.0604C74.7851 12.18 74.4969 12.2398 74.189 12.2398C73.9916 12.2398 73.8061 12.2143 73.6324 12.1634C73.4587 12.1125 73.2995 12.0349 73.1547 11.9306C73.0126 11.8237 72.8994 11.6787 72.8152 11.4955C72.731 11.3123 72.6889 11.0998 72.6889 10.8581Z" fill="#BCBCBC"/>
<path d="M77.2636 12.194H76.9044L78.1084 9.52219H78.4755L79.6756 12.194H79.3203L79.0361 11.5489H77.5478L77.2636 12.194ZM78.2466 9.95349L77.6781 11.2512H78.9058L78.3334 9.95349C78.3281 9.94077 78.3137 9.90642 78.29 9.85044C78.2663 9.90896 78.2518 9.94331 78.2466 9.95349Z" fill="#BCBCBC"/>
<path d="M80.1432 10.8581C80.1432 10.5655 80.2156 10.3123 80.3603 10.0985C80.5051 9.88224 80.6867 9.72448 80.9051 9.62524C81.1235 9.52601 81.3591 9.47639 81.6117 9.47639C81.917 9.47639 82.1933 9.53618 82.4407 9.65578V9.97639C82.2276 9.84662 81.967 9.78173 81.6591 9.78173C81.5091 9.78173 81.3657 9.80336 81.2288 9.84662C81.092 9.88733 80.9656 9.94967 80.8498 10.0336C80.7367 10.1151 80.6459 10.227 80.5774 10.3695C80.5117 10.512 80.4788 10.6749 80.4788 10.8581C80.4788 11.0515 80.513 11.2207 80.5814 11.3657C80.6498 11.5082 80.7419 11.6202 80.8577 11.7016C80.9735 11.7805 81.0985 11.839 81.2327 11.8772C81.3696 11.9153 81.5143 11.9344 81.667 11.9344C81.8644 11.9344 82.0341 11.9013 82.1762 11.8352V10.7741H82.5078V12.0604C82.2394 12.18 81.9512 12.2398 81.6433 12.2398C81.4459 12.2398 81.2604 12.2143 81.0867 12.1634C80.913 12.1125 80.7538 12.0349 80.609 11.9306C80.4669 11.8237 80.3537 11.6787 80.2695 11.4955C80.1853 11.3123 80.1432 11.0998 80.1432 10.8581Z" fill="#BCBCBC"/>
<path d="M83.4714 9.52219H85.3346V9.82753H83.803V10.694H85.2162V10.9993H83.803V11.8886H85.3583V12.194H83.4714V9.52219Z" fill="#BCBCBC"/>
<path d="M86.6141 12.194H86.2825V9.52219H86.5904L88.2524 11.6558V9.52219H88.584V12.194H88.2761L86.6141 10.0565V12.194Z" fill="#BCBCBC"/>
<path d="M89.4864 10.8772C89.4864 10.582 89.5588 10.3263 89.7035 10.11C89.8483 9.89115 90.0286 9.73084 90.2444 9.62906C90.4602 9.52728 90.6918 9.47639 90.9391 9.47639C91.2234 9.47639 91.4826 9.53618 91.7168 9.65578V9.97639C91.5168 9.84662 91.276 9.78173 90.9944 9.78173C90.6786 9.78173 90.4049 9.87588 90.1733 10.0642C89.9417 10.2499 89.8246 10.5209 89.822 10.8772C89.822 11.1036 89.8812 11.2996 89.9996 11.465C90.1207 11.6303 90.2681 11.7499 90.4417 11.8237C90.6181 11.8975 90.8062 11.9344 91.0063 11.9344C91.3036 11.9344 91.5471 11.8695 91.7366 11.7398V12.0604C91.4971 12.18 91.23 12.2398 90.9352 12.2398C90.7589 12.2398 90.5852 12.2105 90.4141 12.152C90.243 12.0909 90.0878 12.0057 89.9483 11.8963C89.8088 11.7843 89.697 11.6405 89.6127 11.465C89.5285 11.2868 89.4864 11.0909 89.4864 10.8772Z" fill="#BCBCBC"/>
<path d="M93.7116 12.194H93.3801V11.1825L92.2944 9.52219H92.6616L93.5458 10.8962L94.4301 9.52219H94.7972L93.7116 11.1825V12.194Z" fill="#BCBCBC"/>
</svg>
