<svg width="48" height="49" viewBox="0 0 48 49" fill="none" xmlns="http://www.w3.org/2000/svg">
<path fill-rule="evenodd" clip-rule="evenodd" d="M24 24.5L48 24.5V41.646C48 45.4146 44.9146 48.5 41.146 48.5H24L24 24.5Z" fill="white"/>
<path fill-rule="evenodd" clip-rule="evenodd" d="M6.854 0.5L24 0.5L24 24.5L0 24.5L0 7.354C0 3.5854 3.0854 0.5 6.854 0.5Z" fill="white"/>
<path fill-rule="evenodd" clip-rule="evenodd" d="M0 24.5L24 24.5L24 48.5H6.854C3.0854 48.511 0 45.4256 0 41.646L0 24.5Z" fill="white"/>
<path fill-rule="evenodd" clip-rule="evenodd" d="M24 0.5L41.146 0.5C44.9146 0.5 48 3.5854 48 7.354V24.5L24 24.5L24 0.5Z" fill="white"/>
<path d="M17.496 39.4228V37.9572L12.8018 34.6404V31.4558L12.7797 31.2244L12.7467 30.982L12.6696 30.7285L12.5704 30.4861L12.4602 30.3098L12.339 30.1445L12.1847 30.0453L11.9974 29.9902L11.8211 30.0453L11.6668 30.1445L11.5346 30.3098L11.4244 30.4861L11.3252 30.7285L11.2481 30.982L11.193 31.2244V31.4558V34.6404L6.50977 37.9572L6.50977 39.4228L11.193 37.0646L11.193 40.6239L9.56211 42.0343V43.0261L11.9974 42.0343L14.4106 43.0261V42.0343L12.8018 40.6239L12.8018 37.0646L17.496 39.4228Z" fill="#F77F08"/>
<path fill-rule="evenodd" clip-rule="evenodd" d="M33.8842 38.5715C35.7244 37.5247 35.7244 37.5026 37.3663 38.6046L37.3553 39.409L33.8952 39.398L33.8842 38.5715ZM38.7658 37.9324C39.2616 37.8332 39.6473 38.1748 39.7244 38.5495C39.8346 39.0564 39.482 39.442 39.0853 39.5302C38.0385 39.7506 37.6859 38.1638 38.7658 37.9324ZM32.1432 37.9434C32.628 37.8112 33.0357 38.1528 33.1349 38.5274C33.3883 39.5963 31.8236 39.9599 31.5481 38.9462C31.4049 38.4283 31.7465 38.0426 32.1432 37.9434ZM32.2974 36.2464C31.8787 36.1032 31.7024 35.982 31.7024 35.5743C31.7024 35.1445 31.7024 34.7148 31.7024 34.296C31.7024 33.8112 31.6253 33.3924 31.8787 33.1941C32.077 33.0398 32.5178 32.8745 32.8374 32.8966C32.9366 32.8415 34.2589 32.8525 34.4572 32.8745C34.5013 33.0619 34.4572 33.5577 34.4793 33.7891L36.7933 33.8002L36.8043 32.8855C36.9366 32.8305 38.3911 32.8415 38.4793 32.8966C38.8319 32.8966 39.2396 33.0398 39.4269 33.2271C39.5812 33.3924 39.5592 33.4365 39.5592 33.712V35.5963C39.5592 35.8387 39.5151 35.9269 39.3828 36.0371L32.2974 36.2464ZM32.2644 31.3539C32.5399 31.2988 33.0688 31.3318 33.3773 31.3318C33.9944 31.3318 38.6996 31.3098 38.9641 31.3428C39.2837 31.3759 39.5481 31.5412 39.5592 31.8718C39.5922 32.6321 38.4903 32.4558 37.8732 32.4558C37.2561 32.4558 32.5619 32.4889 32.2864 32.4448C31.504 32.3125 31.482 31.5081 32.2644 31.3539ZM31.7795 40.3566C31.7795 41.1721 31.5812 41.8222 32.4076 41.8553C33.3443 41.8883 33.1239 41.1941 33.1349 40.4448L38.1377 40.4338C38.1487 41.1721 37.9283 41.8883 38.8649 41.8553C39.7575 41.8222 39.4269 41.0619 39.5041 40.3456C39.9779 40.1913 40.3415 39.8167 40.5288 39.3759C40.7382 38.869 40.6721 38.0977 40.6721 37.5026C40.6721 36.1693 40.6721 34.836 40.6721 33.5136C40.6721 32.9627 40.7382 32.1142 40.5399 31.6514C39.9999 30.3291 38.8319 30.5605 37.6087 30.5605C36.2754 30.5605 34.9421 30.5605 33.6198 30.5605C33.1018 30.5605 32.1211 30.5054 31.7024 30.6597C31.2506 30.836 30.887 31.1996 30.7107 31.6624C30.5233 32.1693 30.5894 32.9517 30.5894 33.5467C30.5894 34.88 30.5894 36.2134 30.5894 37.5357C30.5894 38.1197 30.5233 38.9021 30.7437 39.398C30.9421 39.8497 31.2726 40.1803 31.7795 40.3566Z" fill="#6BC54A"/>
<path fill-rule="evenodd" clip-rule="evenodd" d="M10.1799 6.7751C10.1799 6.76619 10.1799 6.7571 10.1799 6.74782C10.1799 6.53845 10.5326 6.25195 10.775 6.25195H13.2543C13.5959 6.25195 13.9155 6.51642 13.9155 6.80292C13.9155 7.15554 13.5849 7.40898 13.2543 7.40898H10.8411C10.6427 7.40898 10.5105 7.34286 10.4003 7.25471C10.1792 7.07569 10.1794 6.96711 10.1799 6.7751ZM8.5269 14.6806C8.16327 14.8128 8.02002 15.0773 8.02002 15.4189C8.02002 15.9698 8.96768 16.3114 9.48558 15.8707C10.1467 15.3087 9.43049 14.361 8.5269 14.6806ZM15.6674 14.8128C15.5352 14.7136 15.2928 14.6145 15.0503 14.6145C14.3782 14.6145 13.8492 15.3638 14.4773 15.8707C14.7197 16.069 15.0834 16.1461 15.447 16.0029C16.0421 15.7715 16.0641 15.0993 15.6674 14.8128ZM7.7225 10.6365V11.9698C7.7225 12.1131 7.74453 12.2453 7.76657 12.3776C7.85473 12.7081 8.2404 12.9726 8.61506 12.9726L15.4029 12.9726C15.8547 12.9726 16.1523 12.7412 16.2845 12.4657C16.3428 12.3491 16.3288 12.2374 16.3126 12.1081C16.3044 12.0419 16.2955 11.9711 16.2955 11.8927C16.2966 11.8508 16.2979 11.8031 16.2994 11.7509C16.3134 11.2538 16.3391 10.3448 16.2294 10.0855C16.1082 9.81005 15.7886 9.57865 15.3368 9.57865L8.74729 9.57865C7.96492 9.57865 7.7225 10.0304 7.7225 10.6365ZM6.82993 15.2426L6.82993 9.57865C6.82993 8.47672 7.6674 7.77148 8.98971 7.77148L15.0724 7.77148C15.9649 7.77148 16.6702 8.13512 16.9897 8.69711C17.0999 8.87341 17.1991 9.10482 17.1991 9.35826V15.3638C17.1991 15.8376 16.9787 16.1572 16.7253 16.4327C16.4718 16.7081 16.0531 16.8955 15.6454 16.9726L16.8244 18.3059C16.8827 18.3642 16.9221 18.4099 16.9712 18.4668C16.987 18.4852 17.0039 18.5048 17.0228 18.5263C17.0889 18.6035 17.144 18.6696 17.1991 18.7357H15.414C15.3313 18.6324 15.2401 18.542 15.1483 18.4511C15.0932 18.3965 15.038 18.3418 14.9842 18.2839L14.1357 17.4134C14.1091 17.3868 14.0852 17.3641 14.062 17.3422C14.018 17.3006 13.9769 17.2618 13.9264 17.204C13.9104 17.1861 13.8956 17.1685 13.8814 17.1518C13.8172 17.0758 13.7672 17.0167 13.695 17.0167H10.5434C10.4737 17.0167 10.4148 17.0821 10.3592 17.1439C10.3358 17.17 10.3129 17.1954 10.29 17.215L9.47456 17.9754C9.45253 17.9974 9.43324 18.0112 9.41396 18.0249C9.39467 18.0387 9.37539 18.0525 9.35335 18.0745L8.68117 18.7357H6.79688L8.48283 16.9616C8.05307 16.9395 7.51313 16.631 7.30376 16.3996C7.02828 16.1021 6.82993 15.7605 6.82993 15.2426Z" fill="#E8331A"/>
<path fill-rule="evenodd" clip-rule="evenodd" d="M31.6504 11.6965L35.9589 10.2089L40.3336 11.7076L39.9038 7.66348L38.4824 7.64144L38.4273 5.90039L33.3584 5.90039L33.2482 7.58634L32.1463 7.58634L31.6504 11.41C31.6614 11.4762 31.6834 11.6084 31.6504 11.6965ZM32.7149 8.25781L32.2988 10.729L36.033 9.57513L39.7124 10.7001L39.4605 8.25781L32.7149 8.25781ZM36.0426 12.3235L31.4131 13.9018L30.8846 12.5935L32.1374 12.1262L35.9643 10.7245L39.85 12.1366L41.1223 12.635L40.584 13.8498L36.0426 12.3235ZM35.8286 12.8457L35.8217 16.7232C35.5853 16.7114 35.4177 16.6783 35.2864 16.6387C35.1285 16.5913 35.0061 16.5304 34.8386 16.4472L34.8288 16.4423C34.4494 16.2537 34.0202 16.0563 33.1411 16.0467C32.9786 16.0448 32.823 16.0503 32.6741 16.0618L31.9453 14.2029L35.8286 12.8457ZM38.8799 16.0215C39.0085 16.0215 39.1272 16.027 39.2377 16.0371L40.0649 14.1556L36.19 12.8457L36.1829 16.7088C36.2769 16.6941 36.3852 16.6706 36.5087 16.6381C36.7391 16.5774 36.9887 16.4946 37.2573 16.4049L37.283 16.3963L37.283 16.3963L37.283 16.3963C37.5371 16.3113 37.8086 16.2206 38.0662 16.1512C38.3285 16.0805 38.6127 16.0215 38.8799 16.0215ZM37.9443 16.6843C38.1836 16.613 38.4511 16.5508 38.7069 16.5508C39.3596 16.5508 39.7403 16.7211 40.0961 16.8831L40.1104 16.8896C40.4224 17.0316 40.7346 17.1738 41.3303 17.2432L41.3304 17.2432C41.3317 17.2433 41.3412 17.2437 41.3608 17.2414C41.3841 17.2387 41.4152 17.2329 41.4549 17.2225C41.536 17.2013 41.6312 17.1668 41.7394 17.1223C41.8168 17.0904 41.8895 17.0582 41.9647 17.0249L41.9647 17.0249L41.9648 17.0248C41.9967 17.0107 42.029 16.9964 42.0623 16.9818C42.1596 16.9392 42.2836 16.8861 42.395 16.8555L42.6757 17.8767C42.6495 17.8839 42.5937 17.9053 42.4868 17.9521L42.4065 17.9875C42.327 18.0227 42.234 18.0639 42.1428 18.1015C42.0163 18.1536 41.8708 18.2085 41.7227 18.2471C41.58 18.2845 41.3992 18.3166 41.2128 18.2957L41.2107 18.2955C40.4482 18.207 40.0177 18.011 39.6675 17.8516L39.6573 17.847C39.3437 17.7043 39.1301 17.6099 38.7069 17.6099C38.6061 17.6099 38.456 17.6369 38.2468 17.6993C38.0446 17.7596 37.8249 17.8408 37.5837 17.93L37.5836 17.9301L37.5753 17.9331C37.3385 18.0207 37.0803 18.116 36.8334 18.1879C36.591 18.2586 36.3205 18.3188 36.0608 18.3158L36.06 18.3158C35.691 18.311 35.403 18.2604 35.1543 18.1777C34.9252 18.1014 34.7445 18.0018 34.6034 17.924L34.6033 17.924L34.6033 17.924L34.5778 17.9099C34.4302 17.8288 34.3159 17.7687 34.1666 17.7224C34.0187 17.6766 33.8163 17.6387 33.5083 17.635L33.5075 17.635C32.9713 17.6278 32.5383 17.7487 32.1363 17.8906C32.0633 17.9164 31.9794 17.9474 31.8935 17.9792L31.8934 17.9792L31.8934 17.9792L31.8933 17.9792C31.7687 18.0253 31.6398 18.0729 31.5329 18.1087C31.3331 18.1757 31.1107 18.2381 30.8766 18.2555L30.8759 18.2556C30.0269 18.3178 29.5373 18.0347 29.2051 17.8394L29.7417 16.9264L29.7428 16.927C30.0107 17.0844 30.2717 17.2379 30.7981 17.1994C30.9017 17.1916 31.0264 17.1615 31.1963 17.1046C31.3 17.0698 31.3916 17.0357 31.4942 16.9975L31.4943 16.9975L31.4944 16.9975C31.579 16.966 31.6711 16.9317 31.7838 16.892C32.2388 16.7313 32.8066 16.5665 33.5213 16.576C33.9138 16.5808 34.2195 16.6301 34.4801 16.7108C34.7394 16.7912 34.9339 16.8971 35.0882 16.9819L35.0936 16.9849C35.2478 17.0697 35.3531 17.1276 35.4887 17.1728C35.6204 17.2166 35.7984 17.2532 36.0734 17.2568C36.1765 17.2579 36.3282 17.232 36.5371 17.1711C36.7419 17.1115 36.9646 17.0298 37.2079 16.9398L37.2322 16.9308C37.4611 16.8462 37.7087 16.7546 37.9443 16.6843Z" fill="#0AD3F7"/>
</svg>
