<svg width="66" height="25" viewBox="0 0 66 25" fill="none" xmlns="http://www.w3.org/2000/svg">
<path d="M8.52679 1.5515C8.10794 1.27288 7.59645 1.17073 7.10484 1.26753C6.61323 1.36432 6.18178 1.65212 5.90539 2.06762L4.86328 3.63427C4.77115 3.77277 4.73826 3.94249 4.77184 4.1061C4.80542 4.2697 4.90272 4.41379 5.04233 4.50666C5.46119 4.78528 5.75309 5.21754 5.85383 5.70835C5.95457 6.19916 5.85589 6.70833 5.5795 7.12383C5.30312 7.53933 4.87166 7.82713 4.38005 7.92393C3.88845 8.02072 3.37696 7.91857 2.9581 7.63996C2.81849 7.54708 2.64799 7.51304 2.48412 7.5453C2.32025 7.57756 2.17643 7.6735 2.08431 7.812L1.04219 9.37865C0.765804 9.79415 0.667125 10.3033 0.767864 10.7941C0.868602 11.2849 1.1605 11.7172 1.57936 11.9958L15.2665 21.1003C15.6853 21.3789 16.1968 21.4811 16.6884 21.3843C17.18 21.2875 17.6115 20.9997 17.8879 20.5842L18.93 19.0175C19.0221 18.879 19.055 18.7093 19.0214 18.5457C18.9878 18.3821 18.8905 18.238 18.7509 18.1452C18.3321 17.8665 18.0402 17.4343 17.9394 16.9435C17.8387 16.4526 17.9374 15.9435 18.2138 15.528C18.4901 15.1125 18.9216 14.8247 19.4132 14.7279C19.9048 14.6311 20.4163 14.7332 20.8352 15.0119C20.9748 15.1047 21.1453 15.1388 21.3091 15.1065C21.473 15.0742 21.6168 14.9783 21.709 14.8398L22.7511 13.2732C23.0275 12.8577 23.1261 12.3485 23.0254 11.8577C22.9247 11.3669 22.6328 10.9346 22.2139 10.656L8.52679 1.5515Z" fill="white"/>
<path d="M3.97401 12.5658C4.28107 12.2612 4.69796 12.0897 5.13309 12.0897H21.5717C22.0069 12.0897 22.4238 12.2612 22.7308 12.5658C23.0378 12.8703 23.2099 13.2829 23.2099 13.7126V15.5942C23.2099 15.6913 23.171 15.7848 23.1012 15.8541C23.0313 15.9235 22.936 15.9628 22.8362 15.9628C22.2653 15.9628 21.7173 16.1878 21.3129 16.5889C20.9085 16.9901 20.6809 17.5347 20.6809 18.103C20.6809 18.6713 20.9085 19.2159 21.3129 19.6171C21.7173 20.0183 22.2653 20.2432 22.8362 20.2432C22.936 20.2432 23.0313 20.2826 23.1012 20.3519C23.171 20.4212 23.2099 20.5147 23.2099 20.6118V22.4934C23.2099 22.9232 23.0378 23.3358 22.7308 23.6403C22.4238 23.9449 22.0069 24.1164 21.5717 24.1164H5.13309C4.69796 24.1164 4.28107 23.9449 3.97401 23.6403C3.66703 23.3358 3.49495 22.9232 3.49495 22.4934V20.6118C3.49495 20.5147 3.53381 20.4212 3.60365 20.3519C3.67356 20.2826 3.76882 20.2432 3.86858 20.2432C4.43956 20.2432 4.98757 20.0183 5.39194 19.6171C5.79638 19.2159 6.02397 18.6713 6.02397 18.103C6.02397 17.5347 5.79638 16.9901 5.39194 16.5889C4.98757 16.1878 4.43956 15.9628 3.86858 15.9628C3.76882 15.9628 3.67356 15.9235 3.60365 15.8541C3.5338 15.7848 3.49495 15.6913 3.49495 15.5942V13.7126C3.49495 13.2829 3.66703 12.8703 3.97401 12.5658Z" fill="url(#paint0_linear_480_153)" stroke="white" stroke-width="0.517241"/>
<path d="M13.5548 13.0439H9.4477C8.98087 13.0439 8.53315 13.2278 8.20305 13.5551C7.87295 13.8823 7.6875 14.3262 7.6875 14.789V19.4424C7.6875 19.9052 7.87295 20.349 8.20305 20.6763C8.53315 21.0035 8.98087 21.1874 9.4477 21.1874L8.86097 21.7691V22.3507H9.4477L10.6212 21.1699L11.7946 21.1874V18.279H8.86097V14.2073H14.1416V15.3706H15.315V14.789C15.315 14.3262 15.1296 13.8823 14.7995 13.5551C14.4694 13.2278 14.0217 13.0439 13.5548 13.0439ZM9.4477 18.8607C9.60331 18.8607 9.75255 18.922 9.86258 19.0311C9.97262 19.1401 10.0344 19.2881 10.0344 19.4424C10.0344 19.5966 9.97262 19.7446 9.86258 19.8537C9.75255 19.9628 9.60331 20.024 9.4477 20.024C9.29209 20.024 9.14285 19.9628 9.03282 19.8537C8.92278 19.7446 8.86097 19.5966 8.86097 19.4424C8.86097 19.2881 8.92278 19.1401 9.03282 19.0311C9.14285 18.922 9.29209 18.8607 9.4477 18.8607ZM18.5831 16.3362C18.501 16.1036 18.278 15.9523 18.014 15.9523H13.7954C13.5255 15.9523 13.3084 16.1036 13.2204 16.3362L12.3814 18.7269V21.9319C12.3814 22.153 12.5691 22.3507 12.7921 22.3507H13.1559C13.3788 22.3507 13.5548 22.1297 13.5548 21.9087V21.1874H18.2487V21.9087C18.2487 22.1297 18.4306 22.3507 18.6535 22.3507H19.0114C19.2344 22.3507 19.4222 22.153 19.4222 21.9319V18.7269L18.5831 16.3362ZM13.7954 16.534H18.014L18.6183 18.279H13.1911L13.7954 16.534ZM13.5548 20.024C13.3992 20.024 13.25 19.9628 13.1399 19.8537C13.0299 19.7446 12.9681 19.5966 12.9681 19.4424C12.9681 19.2881 13.0299 19.1401 13.1399 19.0311C13.25 18.922 13.3992 18.8607 13.5548 18.8607C13.7104 18.8607 13.8597 18.922 13.9697 19.0311C14.0797 19.1401 14.1416 19.2881 14.1416 19.4424C14.1416 19.5966 14.0797 19.7446 13.9697 19.8537C13.8597 19.9628 13.7104 20.024 13.5548 20.024ZM18.2487 20.024C18.0931 20.024 17.9438 19.9628 17.8338 19.8537C17.7238 19.7446 17.662 19.5966 17.662 19.4424C17.662 19.2881 17.7238 19.1401 17.8338 19.0311C17.9438 18.922 18.0931 18.8607 18.2487 18.8607C18.4043 18.8607 18.5535 18.922 18.6636 19.0311C18.7736 19.1401 18.8354 19.2881 18.8354 19.4424C18.8354 19.5966 18.7736 19.7446 18.6636 19.8537C18.5535 19.9628 18.4043 20.024 18.2487 20.024Z" fill="white"/>
<path d="M30.6506 8.23445L28.5278 14.6027V15.1924H30.1789L30.6703 13.7182H32.9896L33.4809 15.1924H35.1909V14.6027L33.0682 8.23445H30.6506ZM32.0854 9.88549C32.0854 11.0058 32.3213 11.7134 32.4982 12.2441H31.1616C31.3385 11.7134 31.5744 11.0058 31.5744 9.88549H32.0854ZM37.828 9.76755H38.8894C39.597 9.76755 39.597 9.76755 39.597 10.8682C39.597 11.9493 39.597 11.9493 38.8894 11.9493H37.828V9.76755ZM36.0591 15.1924H37.828V13.4824H38.4177C39.597 13.4824 41.4839 13.4824 41.4839 10.8682C41.4839 8.23445 39.597 8.23445 38.4177 8.23445H36.0591V15.1924ZM42.5852 8.23445V15.1924H44.2952V9.88549H44.649C44.649 11.0648 44.649 11.0648 45.8873 15.1924H47.5383C48.7766 11.0648 48.7766 11.0648 48.7766 9.88549H49.1304V15.1924H50.8404V8.23445H47.9511C46.8897 11.7724 46.8897 11.7724 46.8897 12.9517H46.5359C46.5359 11.7724 46.5359 11.7724 45.4745 8.23445H42.5852Z" fill="black"/>
<path d="M28.5521 19.7881H29.1107V18.075H30.0789V19.7881H30.6376V17.5908H28.5521V19.7881ZM31.4871 17.5908C31.4778 18.1774 31.4716 18.5157 31.3816 19.1333C31.3444 19.3877 31.2513 19.3939 30.9813 19.3939V19.7943C31.7571 19.7943 31.8192 19.726 31.8875 19.1984C31.9558 18.6553 31.9682 18.3326 31.9744 18.075H32.6416V19.7881H33.2002V17.5908H31.4871ZM34.2994 17.5908L33.4925 19.6081V19.7881H34.0325L34.2187 19.3226H35.2987L35.4849 19.7881H36.0249V19.6081L35.218 17.5908H34.2994ZM34.6097 18.1122H34.9077C34.9077 18.2984 34.9822 18.4846 35.1311 18.8571H34.3863C34.5353 18.4846 34.6097 18.2984 34.6097 18.1122ZM36.8754 17.5908H36.3167V19.7881H36.8754V18.9315H37.8436V19.7881H38.4023V17.5908H37.8436V18.4474H36.8754V17.5908ZM39.4939 19.006V17.5908H38.9353V19.7881H39.6056C40.2387 18.8384 40.3877 18.615 40.3877 18.3729H40.5367V19.7881H41.0953V17.5908H40.4249C39.7918 18.5591 39.6429 18.7826 39.6429 19.006H39.4939ZM42.1882 18.075H42.7468C43.1006 18.075 43.1006 18.075 43.1006 18.4226C43.1006 18.7639 43.1006 18.7639 42.7468 18.7639H42.1882V18.075ZM41.6296 19.7881H42.1882V19.2481H42.5234C43.1006 19.2481 43.6965 19.2481 43.6965 18.4226C43.6965 17.5908 43.1006 17.5908 42.5234 17.5908H41.6296V19.7881ZM45.18 18.0564C45.7728 18.0564 45.7759 18.0564 45.7759 18.6522V18.7267C45.7759 19.3195 45.7759 19.3226 45.18 19.3226C44.5873 19.3226 44.5842 19.3226 44.5842 18.7267V18.6522C44.5842 18.0595 44.5842 18.0564 45.18 18.0564ZM45.0683 17.5288C43.9883 17.5288 43.9883 18.3357 43.9883 18.5964V18.7826C43.9883 19.0433 43.9883 19.8502 45.0683 19.8502H45.2918C46.3718 19.8502 46.3718 19.0433 46.3718 18.7826V18.5964C46.3718 18.3357 46.3718 17.5288 45.2918 17.5288H45.0683ZM47.3707 18.4474V18.075H47.9976C48.2024 18.075 48.2024 18.075 48.2024 18.2612C48.2024 18.4474 48.2024 18.4474 47.9976 18.4474H47.3707ZM48.0411 18.9315C48.2459 18.9315 48.2459 18.9315 48.2459 19.1177C48.2459 19.3039 48.2459 19.3039 48.0411 19.3039H47.3707V18.9315H48.0411ZM46.8121 17.5908V19.7881H47.8549C48.2645 19.7881 48.879 19.7881 48.879 19.2108C48.879 19.1177 48.879 18.8198 48.5066 18.7267V18.6522C48.8324 18.5591 48.8355 18.2612 48.8355 18.1681C48.8355 17.5908 48.2211 17.5908 47.8114 17.5908H46.8121ZM49.8833 17.5908L49.0764 19.6081V19.7881H49.6164L49.8026 19.3226H50.8826L51.0688 19.7881H51.6088V19.6081L50.8019 17.5908H49.8833ZM50.1937 18.1122H50.4916C50.4916 18.2984 50.5661 18.4846 50.715 18.8571H49.9702C50.1192 18.4846 50.1937 18.2984 50.1937 18.1122ZM52.4593 17.5908H51.9007V19.7881H52.4593V18.9315H53.4276V19.7881H53.9862V17.5908H53.4276V18.4474H52.4593V17.5908ZM55.0778 19.006V17.5908H54.5192V19.7881H55.1895C55.8226 18.8384 55.9716 18.615 55.9716 18.3729H56.1206V19.7881H56.6792V17.5908H56.0088C55.3757 18.5591 55.2268 18.7826 55.2268 19.006H55.0778ZM57.7721 18.9315H58.8149V18.4474H57.7721V18.075H59.0383V17.5908H57.2135V19.7881H59.0383V19.3039H57.7721V18.9315ZM28.5521 23.7881H29.1107V22.075H30.0789V23.7881H30.6376V21.5908H28.5521V23.7881ZM32.6199 21.5908C32.3313 22.165 32.2816 22.3326 32.2816 22.5777H31.8658C31.8658 22.3326 31.8161 22.165 31.5275 21.5908H30.9502V21.7771L31.5616 23.0619H31.9713L31.9247 23.155C31.8502 23.3039 31.8502 23.3039 31.6827 23.3039H31.3599V23.7881H31.5523C32.0644 23.7881 32.2382 23.785 32.5206 23.1922L33.1971 21.7771V21.5908H32.6199ZM33.2564 21.5908V22.075H34.0447V23.7881H34.6033V22.075H35.3916V21.5908H33.2564ZM36.2541 22.9315H37.2968V22.4474H36.2541V22.075H37.5203V21.5908H35.6954V23.7881H37.5203V23.3039H36.2541V22.9315ZM40.6438 23.3039H39.8617V21.5908H39.3031V23.3039H38.521V21.5908H37.9624V23.7881H41.2024V21.5908H40.6438V23.3039ZM42.2943 22.9315H43.337V22.4474H42.2943V22.075H43.5605V21.5908H41.7356V23.7881H43.5605V23.3039H42.2943V22.9315ZM44.9523 21.5288C43.9095 21.5288 43.9095 22.3357 43.9095 22.5964V22.7826C43.9095 23.1177 43.9095 23.8502 45.0268 23.8502C45.213 23.8502 45.5047 23.8502 45.9764 23.7322V23.2171H45.8275L45.3806 23.3288H45.1012C44.5054 23.3288 44.5054 23.3288 44.5054 22.7453V22.6336C44.5054 22.0502 44.5054 22.0502 45.0268 22.0502C45.393 22.0502 45.393 22.0502 45.4923 22.4474L46.0509 22.3077C46.0509 22.1495 46.0509 21.5288 45.1012 21.5288H44.9523ZM46.2248 21.5908V22.075H47.0131V23.7881H47.5717V22.075H48.36V21.5908H46.2248ZM49.2225 22.4474V22.075H49.8494C50.0542 22.075 50.0542 22.075 50.0542 22.2612C50.0542 22.4474 50.0542 22.4474 49.8494 22.4474H49.2225ZM49.8928 22.9315C50.0976 22.9315 50.0976 22.9315 50.0976 23.1177C50.0976 23.3039 50.0976 23.3039 49.8928 23.3039H49.2225V22.9315H49.8928ZM48.6639 21.5908V23.7881H49.7066C50.1163 23.7881 50.7308 23.7881 50.7308 23.2108C50.7308 23.1177 50.7308 22.8198 50.3583 22.7267V22.6522C50.6842 22.5591 50.6873 22.2612 50.6873 22.1681C50.6873 21.5908 50.0728 21.5908 49.6632 21.5908H48.6639ZM51.7289 23.006V21.5908H51.1703V23.7881H51.8406C52.4737 22.8384 52.6227 22.615 52.6227 22.3729H52.7716V23.7881H53.3303V21.5908H52.6599C52.0268 22.5591 51.8778 22.7826 51.8778 23.006H51.7289ZM54.4232 23.006V21.5908H53.8646V23.7881H54.5349C55.168 22.8384 55.317 22.615 55.317 22.3729H55.4659V23.7881H56.0246V21.5908H55.3542C54.7211 22.5591 54.5721 22.7826 54.5721 23.006H54.4232ZM54.8577 21.1315C54.6777 21.1315 54.6342 21.0695 54.5597 20.9577L54.2804 21.1439C54.5039 21.4419 54.6528 21.4419 54.8887 21.4419H55.0004C55.2363 21.4419 55.3852 21.4419 55.6087 21.1471L55.3294 20.9577C55.258 21.0695 55.2146 21.1315 55.0315 21.1315H54.8577Z" fill="black"/>
<defs>
<linearGradient id="paint0_linear_480_153" x1="8.69902" y1="19.7216" x2="16.7919" y2="22.7564" gradientUnits="userSpaceOnUse">
<stop stop-color="#F73217"/>
<stop offset="1" stop-color="#FF2E2E"/>
</linearGradient>
</defs>
</svg>
