<svg width="56" height="27" viewBox="0 0 56 27" fill="none" xmlns="http://www.w3.org/2000/svg">
<path d="M40.4171 2.6518V3.5388L47.8392 3.5388C48.3327 3.5388 49.0768 3.5388 49.5722 4.0451C50.0677 4.55334 50.0677 5.31473 50.0677 5.82297V13.4369C50.0677 13.9451 50.0677 14.7065 49.5722 15.2128C49.0768 15.721 48.3327 15.721 47.8392 15.721H44.26C43.6421 15.721 42.8359 15.721 42.5269 15.0234C42.2199 14.3239 42.6501 13.69 43.0243 13.1837L47.8467 6.59402L40.4247 6.59402L37.4483 10.6522C36.951 11.3324 36.5215 11.9218 36.5215 12.6813C36.5215 13.4427 36.9208 13.9915 37.4483 14.7104L38.1905 15.7249C38.9327 16.7394 39.6749 17.754 40.6582 18.2564C41.6491 18.7608 42.8246 18.7608 44.4258 18.7608L47.647 18.7608C49.5044 18.7608 52.2811 18.7608 54.146 16.8593C55.9997 14.9558 55.9997 12.1634 55.9997 11.1585V8.1052C55.9997 7.08873 55.9997 4.29825 54.146 2.40444C52.2886 0.499034 49.512 0.504831 47.647 0.502899L42.5232 0.5C42.0315 0.5 41.4099 0.5 40.9144 1.00824C40.4228 1.51647 40.4228 2.15032 40.4228 2.65856" fill="#E8331A"/>
<path d="M31.3173 6.58594L38.9575 6.58594L29.7501 18.7598H21.9141L31.3173 6.58594Z" fill="#E8331A"/>
<path d="M0.0265337 8.885C0.0265337 8.34526 0.0265337 7.66749 0.563331 7.12568C1.09809 6.58594 1.77163 6.58594 2.30639 6.58594L15.7773 6.58594C17.5184 6.58594 18.7981 6.58594 19.8594 7.12568C20.929 7.66955 21.7331 8.7511 22.5332 9.8244L23.3394 10.906C23.913 11.6744 24.3477 12.2594 24.3477 13.0691C24.3477 13.8807 23.8783 14.5091 23.3394 15.2322L20.1146 19.5583L12.0728 19.5583L17.2979 12.5334C17.7 11.9916 18.1715 11.318 17.8347 10.5722C17.502 9.83058 16.6305 9.83058 15.961 9.83058L9.65418 9.83058L9.65418 26.0641H3.22486L3.22486 9.83058H0L0 8.88294" fill="#E8331A"/>
</svg>
