<svg width="51" height="51" viewBox="0 0 51 51" fill="none" xmlns="http://www.w3.org/2000/svg">
<path fill-rule="evenodd" clip-rule="evenodd" d="M0.236328 39.3825L0.236328 41.7846H0.726303H1.21633L1.79035 40.6311C2.47629 39.2529 2.69243 38.7258 2.76901 38.2446C2.82091 37.9182 2.83656 37.8842 2.9345 37.8842H3.04271L3.04271 39.8344L3.04271 41.7846H3.42323H3.80376L3.80376 39.3825L3.80376 36.9805H3.28881H2.77382L2.12621 38.3004C1.4561 39.6662 1.24486 40.1975 1.20034 40.629C1.17704 40.8546 1.16262 40.8809 1.06207 40.8809H0.949814L0.949814 38.9307L0.949814 36.9805H0.593071H0.236328L0.236328 39.3825ZM13.7444 38.3261C13.2376 38.4414 12.9565 38.7017 12.8168 39.1855C12.7518 39.4107 12.7402 39.6068 12.7563 40.2082C12.7797 41.0772 12.8338 41.2582 13.1554 41.5413C13.4287 41.7818 13.7043 41.8568 14.2984 41.8523C14.725 41.8491 14.8117 41.8335 15.0511 41.7163C15.3519 41.5691 15.5644 41.3199 15.6583 41.0043C15.6926 40.8888 15.7168 40.5093 15.7176 40.0722C15.7187 39.4722 15.7024 39.2874 15.63 39.0795C15.5182 38.7583 15.2588 38.4937 14.9528 38.3886C14.6425 38.282 14.0689 38.2523 13.7444 38.3261ZM21.0133 38.3131C20.4128 38.4077 20.4298 38.3951 20.4139 38.7551C20.4 39.0713 20.4007 39.0734 20.526 39.0734C20.5953 39.0734 20.7836 39.0393 20.9444 38.9976C21.132 38.9489 21.3702 38.9278 21.6099 38.9387C22.0888 38.9603 22.1641 39.0343 22.1641 39.4829V39.7868L21.7479 39.7872C20.8569 39.788 20.4132 39.94 20.2226 40.3101C20.1269 40.4956 20.1145 40.5781 20.1296 40.9284C20.1502 41.4076 20.2433 41.605 20.5145 41.7442C20.9091 41.9468 21.5169 41.8845 21.9889 41.5931C22.1149 41.5153 22.2377 41.4516 22.2617 41.4516C22.2858 41.4516 22.3622 41.5373 22.4314 41.6419C22.5007 41.7466 22.5777 41.8322 22.6026 41.8322C22.6588 41.8322 23.0679 41.5416 23.0679 41.5017C23.0679 41.4858 23.0304 41.4199 22.9846 41.3552C22.9142 41.2556 22.8973 41.0845 22.8743 40.2387C22.8424 39.0626 22.7903 38.8359 22.4938 38.5821C22.3914 38.4945 22.22 38.3965 22.113 38.3644C21.8482 38.2851 21.3414 38.2615 21.0133 38.3131ZM33.0916 38.3316C32.7071 38.4142 32.4471 38.6114 32.2726 38.9527C32.1356 39.2205 32.1286 39.2634 32.112 39.9442C32.0913 40.7943 32.1626 41.1444 32.4168 41.4414C32.6764 41.7446 32.9797 41.8493 33.6037 41.851C34.0521 41.8522 34.163 41.8363 34.3787 41.7404C34.9268 41.4966 35.102 41.091 35.102 40.0659C35.102 39.3569 35.0324 39.0158 34.8342 38.7533C34.5287 38.3488 33.8153 38.1762 33.0916 38.3316ZM44.5055 38.3339C43.9716 38.4279 43.9968 38.4067 43.9968 38.7627C43.9968 39.0657 43.9999 39.0734 44.1208 39.0734C44.1889 39.0734 44.3762 39.0393 44.537 38.9976C44.7246 38.9489 44.9628 38.9278 45.2025 38.9387C45.6815 38.9603 45.7568 39.0343 45.7568 39.4829V39.7868L45.3405 39.7872C44.4495 39.788 44.0059 39.94 43.8152 40.3101C43.7195 40.4956 43.7071 40.5781 43.7222 40.9284C43.7428 41.4076 43.8359 41.605 44.1071 41.7442C44.5017 41.9468 45.1095 41.8845 45.5815 41.5931C45.7075 41.5153 45.8303 41.4516 45.8544 41.4516C45.8784 41.4516 45.9548 41.5373 46.024 41.6419C46.0933 41.7466 46.1703 41.8322 46.1953 41.8322C46.2514 41.8322 46.6605 41.5416 46.6605 41.5017C46.6605 41.4858 46.6231 41.4199 46.5773 41.3552C46.5069 41.2558 46.4896 41.0831 46.4656 40.2387C46.4496 39.6801 46.4109 39.1455 46.3777 39.0258C46.3026 38.7554 45.9972 38.4518 45.7154 38.3673C45.4057 38.2746 44.9191 38.2611 44.5055 38.3339ZM5.02463 38.3916C5.00717 38.409 4.9929 39.1796 4.9929 40.104V41.7846H5.34965H5.70639V41.0711V40.3576H6.41859H7.13084L7.14397 41.0592L7.15714 41.7608L7.502 41.7748L7.84685 41.7888V40.0722L7.84685 38.3557L7.502 38.3697L7.15714 38.3837L7.14397 39.0615L7.13075 39.7393H6.41859H5.70639V39.0496V38.3599H5.38137C5.20257 38.3599 5.04204 38.3741 5.02463 38.3916ZM8.94086 40.0722V41.7846H9.2976H9.65435V41.0711V40.3576H10.3678H11.0813V41.0711V41.7846H11.4381H11.7948V40.0722V38.3599H11.4381H11.0813V39.0496V39.7393H10.3678H9.65435V39.0496V38.3599H9.2976H8.94086V40.0722ZM16.6465 40.0763V41.7928L17.6573 41.7768C18.6248 41.7615 18.6781 41.7557 18.9034 41.6419C19.2349 41.4744 19.3276 41.3276 19.3469 40.9388C19.3666 40.543 19.2671 40.3573 18.9539 40.205C18.8359 40.1477 18.7395 40.0891 18.7395 40.0747C18.7396 40.0603 18.8181 40.0057 18.9141 39.9533C19.1999 39.7974 19.2865 39.6387 19.2859 39.272C19.2847 38.5404 18.9115 38.3628 17.3719 38.3608L16.6465 38.3599V40.0763ZM23.8765 40.0715V41.7831L25.244 41.7958L26.6115 41.8084L26.6251 42.2959L26.6386 42.7835H26.9462H27.2537V41.9987V41.2138H26.9921H26.7304V39.7868V38.3599H26.3737H26.017V39.7868V41.2138H25.3035L24.59 41.2138V39.7868V38.3599H24.2332H23.8765V40.0715ZM27.9672 40.0722V41.7846H28.5052H29.0432L29.6481 40.5578C29.9809 39.883 30.2661 39.2506 30.2821 39.1524C30.3032 39.0224 30.3319 38.9778 30.3877 38.9886C30.4558 39.0016 30.4658 39.1591 30.477 40.3939L30.4896 41.7846H30.8218H31.1541V40.0722V38.3599H30.5861H30.0182L29.4661 39.4658C29.0758 40.2479 28.8976 40.6587 28.8579 40.869C28.8239 41.0482 28.7776 41.1663 28.7411 41.1663C28.6936 41.1663 28.6806 40.8664 28.6806 39.7631V38.3599H28.3239H27.9672V40.0722ZM36.0533 40.0702V41.7846H36.4101H36.7668V41.0711V40.3576H37.4803H38.1938V41.0711V41.7846H38.5512H38.9085L38.896 40.0841L38.8835 38.3837L38.5386 38.3697L38.1938 38.3557V39.0475V39.7393H37.4816H36.7694L36.7562 39.0615L36.743 38.3837L36.3982 38.3697L36.0533 38.3557V40.0702ZM40.0013 40.0722V41.7846H40.3343H40.6672V41.0711V40.3576H41.4045H42.1418V41.0711V41.7846H42.4747H42.8077V40.0722V38.3599H42.4747H42.1418V39.0496V39.7393H41.4045H40.6672V39.0496V38.3599H40.3343H40.0013V40.0722ZM48.3249 38.4062C47.9347 38.4566 47.7401 38.5347 47.5791 38.7056C47.3929 38.9033 47.3264 39.1088 47.3264 39.4867C47.3264 39.88 47.4325 40.0877 47.7975 40.4089L48.08 40.6576L47.727 41.1237C47.5328 41.38 47.374 41.6336 47.374 41.6872C47.374 41.7775 47.4026 41.7846 47.7664 41.7845L48.1588 41.7844L48.3105 41.5586C48.4976 41.2797 48.5967 41.054 48.634 40.8214L48.6626 40.643H49.0409H49.4193V41.2138V41.7846H49.7761H50.1328V40.0722V38.3599L49.3599 38.3661C48.9348 38.3695 48.469 38.3876 48.3249 38.4062ZM14.8658 39.0322C14.9838 39.1502 15.027 39.429 15.027 40.0722C15.027 41.1438 14.9785 41.2138 14.236 41.2138C13.9625 41.2138 13.6996 41.1928 13.6517 41.1673C13.5016 41.0869 13.4596 40.8478 13.4596 40.0722C13.4596 39.2437 13.4992 39.0556 13.6893 38.9821C13.8925 38.9036 14.7747 38.9411 14.8658 39.0322ZM18.4592 39.031C18.5456 39.1174 18.5568 39.174 18.54 39.4386C18.5273 39.6375 18.4962 39.7612 18.4515 39.7894C18.4137 39.8133 18.1526 39.8333 17.8713 39.8337L17.36 39.8344V39.3825V38.9307H17.8594C18.3041 38.9307 18.3699 38.9417 18.4592 39.031ZM34.2565 39.0628C34.361 39.1673 34.3648 39.2005 34.3648 40.0141C34.3648 40.4777 34.3492 40.9123 34.3302 40.9797C34.2795 41.1599 34.1068 41.2138 33.5803 41.2138C33.1513 41.2138 33.0977 41.2036 32.9761 41.099L32.8426 40.9842V40.0837C32.8426 38.9167 32.8368 38.9248 33.662 38.9435C34.0965 38.9533 34.1598 38.966 34.2565 39.0628ZM49.4193 39.5015V40.0722H48.8591C48.109 40.0722 48.0875 40.0572 48.0875 39.5316C48.0875 38.9533 48.099 38.9449 48.908 38.9362L49.4193 38.9307V39.5015ZM18.522 40.3848C18.5754 40.4383 18.5967 40.5528 18.5967 40.7874C18.5967 41.2019 18.5769 41.2138 17.8864 41.2138H17.36V40.7619V40.3101H17.9036C18.3344 40.3101 18.4627 40.3256 18.522 40.3848ZM22.1641 40.665V41.0199L21.962 41.0723C21.8508 41.1012 21.6849 41.1447 21.5933 41.169C21.5018 41.1934 21.3152 41.2134 21.1788 41.2135C20.8809 41.2139 20.8323 41.1522 20.8323 40.7742C20.8323 40.5184 20.8886 40.391 21.0226 40.3431C21.0618 40.329 21.3347 40.3159 21.629 40.3138L22.1641 40.3101V40.665ZM45.7568 40.665V41.0199L45.5546 41.0723C45.4434 41.1012 45.2775 41.1447 45.186 41.169C45.0944 41.1934 44.9078 41.2134 44.7714 41.2135C44.4735 41.2139 44.4249 41.1522 44.4249 40.7742C44.4249 40.5184 44.4812 40.391 44.6152 40.3431C44.6544 40.329 44.9273 40.3159 45.2216 40.3138L45.7568 40.3101V40.665ZM15.3207 45.0686C15.241 45.1764 15.1455 45.2188 14.7988 45.3002C14.2694 45.4245 14.0773 45.504 13.8728 45.6836C13.611 45.9135 13.4719 46.2914 13.4078 46.9472C13.3449 47.5894 13.3763 48.9285 13.4614 49.235C13.5375 49.5093 13.7666 49.7679 14.0508 49.9002C14.2603 49.9978 14.3644 50.0126 14.8422 50.013C15.527 50.0136 15.8208 49.9354 16.0698 49.6865C16.3258 49.4304 16.3849 49.1795 16.3848 48.3487C16.3847 47.6777 16.3809 47.6512 16.2421 47.3736C16.1191 47.1273 16.0636 47.0698 15.8379 46.954C15.5906 46.8271 15.5488 46.8207 15.0768 46.8374C14.5659 46.8555 14.2859 46.9425 14.1284 47.1323C14.0255 47.2563 13.9828 47.218 13.9828 47.0017C13.9828 46.6904 14.1102 46.3156 14.2462 46.2265C14.3105 46.1843 14.6006 46.0882 14.8909 46.0127C15.5193 45.8493 15.7147 45.763 15.8334 45.5959C15.9101 45.488 16.0454 45.1096 16.015 45.0884C16.0091 45.0843 15.8725 45.0485 15.7113 45.0088L15.4183 44.9367L15.3207 45.0686ZM10.5343 46.4874C10.0915 46.6035 9.76103 46.9037 9.64807 47.2923C9.60507 47.4404 9.583 47.7742 9.583 48.2773C9.583 49.167 9.63323 49.3565 9.95187 49.6689C10.2283 49.9399 10.4644 50.0135 11.0575 50.0135C11.8211 50.0135 12.1794 49.838 12.407 49.3527C12.5276 49.0956 12.5321 49.0549 12.532 48.2298C12.532 47.2876 12.5088 47.1832 12.2283 46.8638C11.9836 46.5851 11.7046 46.4815 11.1527 46.4646C10.8911 46.4566 10.6128 46.4668 10.5343 46.4874ZM33.7308 46.534C33.445 46.6357 33.1354 46.9087 33.0214 47.1595C32.922 47.3784 32.8782 48.7322 32.959 49.0929C33.0305 49.4124 33.2322 49.6874 33.5185 49.8557C33.738 49.9848 33.77 49.9897 34.3885 49.9897C34.9559 49.9897 35.0528 49.9778 35.2209 49.8871C35.7614 49.5954 35.9486 49.0779 35.897 48.018C35.8559 47.1708 35.6965 46.8431 35.21 46.6051C34.9754 46.4903 34.8694 46.4695 34.4605 46.4577C34.0878 46.4469 33.9291 46.4636 33.7308 46.534ZM37.4788 46.5162C37.3603 46.5543 37.1756 46.6607 37.0682 46.7525C36.7584 47.0177 36.7047 47.2043 36.6818 48.0949C36.652 49.2582 36.7634 49.6011 37.2546 49.8564C37.4778 49.9724 37.5641 49.9878 38.0749 50.0025C38.434 50.013 38.7604 49.9953 38.9548 49.9549L39.264 49.8906L39.2784 49.5882C39.2862 49.422 39.2733 49.2664 39.2495 49.2426C39.2235 49.2167 39.0529 49.2385 38.8229 49.2972C38.4019 49.4047 37.9839 49.4222 37.7024 49.344C37.4126 49.2635 37.3762 49.1197 37.3941 48.1247C37.4124 47.0992 37.4045 47.1115 38.0445 47.1127C38.2705 47.1131 38.4846 47.1319 38.5202 47.1545C38.5559 47.1771 38.6244 47.3105 38.6726 47.4511C38.7704 47.7366 38.815 47.7514 39.2333 47.6377L39.4403 47.5813L39.4071 47.3596C39.3446 46.9428 39.1721 46.7155 38.7884 46.5442C38.5756 46.4492 37.7421 46.4314 37.4788 46.5162ZM4.37455 48.2535V49.9659H4.70751H5.04047V48.5627C5.04047 47.2158 5.04408 47.1595 5.13084 47.1595C5.20077 47.1595 5.23454 47.2161 5.27977 47.4093C5.31197 47.5466 5.50766 48.178 5.71457 48.8124L6.09082 49.9659H6.48285H6.87484L7.26821 48.7749C7.48454 48.1197 7.67409 47.4776 7.68945 47.3479C7.71414 47.1396 7.73055 47.112 7.82968 47.112H7.94198V48.5389V49.9659H8.27494H8.6079V48.2535V46.5412H7.96576C7.61259 46.5412 7.32362 46.5498 7.32362 46.5603C7.32362 46.5708 7.17351 47.0447 6.99 47.6135C6.80654 48.1822 6.63216 48.7943 6.60253 48.9737C6.55848 49.2403 6.53251 49.3 6.46045 49.3C6.38848 49.3 6.37226 49.2628 6.37202 49.0978C6.37169 48.843 6.34277 48.7335 5.9573 47.5282L5.64165 46.5412H5.00808H4.37455V48.2535ZM17.2649 48.2535V49.9659H17.7895H18.314L18.9548 48.6754C19.3072 47.9656 19.5956 47.3342 19.5956 47.2722C19.5956 47.2043 19.6236 47.1595 19.6662 47.1595C19.7268 47.1595 19.7387 47.3578 19.7495 48.5508L19.7621 49.9421L20.1069 49.9561L20.4518 49.9701V48.2556L20.4518 46.5412H19.8812H19.3106L18.8045 47.552C18.2772 48.6053 18.121 48.9845 18.121 49.2123C18.121 49.3008 18.0964 49.3476 18.0497 49.3476C17.9879 49.3476 17.9784 49.16 17.9784 47.9444V46.5412H17.6216H17.2649L17.2649 48.2535ZM22.0956 46.9098C22.0221 47.8424 21.9171 48.8187 21.8705 49.0039C21.8081 49.2517 21.6564 49.3799 21.376 49.4219L21.1653 49.4535V49.7158V49.9781L21.5339 49.9565C22.0251 49.9277 22.2443 49.8215 22.362 49.5556C22.4566 49.3416 22.6132 48.3419 22.6683 47.5995L22.701 47.1595H23.2405H23.7799L23.7925 48.5508L23.8052 49.9421L24.15 49.9561L24.4949 49.9701V48.2556L24.4949 46.5412H23.3098H22.1247L22.0956 46.9098ZM25.5889 48.2591V49.977L26.5283 49.957C27.3452 49.9396 27.4958 49.9243 27.6833 49.8398C28.0885 49.6571 28.2518 49.3507 28.2523 48.772C28.2527 48.2596 28.112 47.9735 27.7608 47.7726C27.5927 47.6764 27.4984 47.6593 27.1348 47.6592C26.8993 47.6591 26.6157 47.6769 26.5045 47.6988L26.3024 47.7387V47.1399V46.5412H25.9456H25.5889L25.5889 48.2591ZM29.1087 48.2556V49.9701L29.4536 49.9561L29.7984 49.9421L29.8116 49.2168L29.8247 48.4914H30.5369H31.2492V49.2307V49.9701L31.594 49.9561L31.9389 49.9421L31.9514 48.2417L31.9639 46.5412H31.6066H31.2492V47.2309V47.9206H30.5357H29.8222V47.2309V46.5412H29.4655H29.1087L29.1087 48.2556ZM39.8586 46.8266V47.112H40.3811H40.9036L40.9162 48.5271L40.9288 49.9421L41.2737 49.9561L41.6185 49.9701V48.541V47.112H42.1655H42.7125V46.8266V46.5412H41.2856H39.8586V46.8266ZM43.426 48.2591V49.977L44.3654 49.953C45.4284 49.9258 45.5906 49.8896 45.8279 49.627C46.0323 49.4006 46.1033 49.1371 46.0821 48.6834C46.0603 48.2206 45.9456 47.9932 45.6374 47.8017C45.4261 47.6704 45.3729 47.659 44.9757 47.659C44.7382 47.659 44.4529 47.6769 44.3417 47.6988L44.1395 47.7387V47.1399V46.5412H43.7828H43.426V48.2591ZM11.6958 47.2032C11.82 47.3274 11.8588 47.6928 11.8331 48.4973C11.8067 49.324 11.7899 49.3499 11.2555 49.3842C10.7374 49.4175 10.4789 49.3686 10.3808 49.2188C10.2877 49.0767 10.2379 48.1421 10.295 47.6086C10.3453 47.1389 10.3867 47.112 11.0575 47.112C11.5333 47.112 11.6164 47.1239 11.6958 47.2032ZM35.0328 47.2287C35.1481 47.344 35.1496 47.3561 35.1496 48.2007C35.1496 48.6711 35.1297 49.1083 35.1054 49.1721C35.0798 49.2395 34.9969 49.3108 34.9081 49.3417C34.7121 49.41 34.0674 49.4109 33.873 49.3431C33.6525 49.2663 33.6176 49.0859 33.6358 48.1185C33.6553 47.0792 33.6306 47.112 34.396 47.112C34.8848 47.112 34.9231 47.119 35.0328 47.2287ZM15.5309 47.6093C15.6438 47.7222 15.6476 47.748 15.6476 48.3972C15.6476 48.787 15.6261 49.1087 15.5963 49.1644C15.5182 49.3102 15.2581 49.3954 14.9 49.3925C14.4412 49.3886 14.258 49.3159 14.1876 49.1097C14.12 48.9113 14.1097 48.0701 14.1716 47.803C14.2365 47.5229 14.3078 47.4925 14.8979 47.4925C15.3826 47.4925 15.4213 47.4996 15.5309 47.6093ZM27.4439 48.3001C27.5391 48.3602 27.5472 49.2156 27.4536 49.3095C27.4123 49.3509 27.212 49.3766 26.8471 49.3873L26.3024 49.4033V48.8284V48.2535L26.8375 48.2543C27.1318 48.2547 27.4047 48.2753 27.4439 48.3001ZM45.2811 48.3001C45.3762 48.3602 45.3844 49.2156 45.2907 49.3095C45.2494 49.3509 45.0491 49.3766 44.6843 49.3873L44.1395 49.4033V48.8284V48.2535L44.6746 48.2543C44.969 48.2547 45.2418 48.2753 45.2811 48.3001Z" fill="black"/>
<path fill-rule="evenodd" clip-rule="evenodd" d="M2.06962 0.545211C1.32974 0.692712 0.652116 1.19634 0.296943 1.86273C-0.0231746 2.46339 0.000513437 1.32486 0.000513437 16.0984C0.000513437 30.9701 -0.0269793 29.7442 0.320393 30.3679C0.640463 30.9428 1.19922 31.3803 1.87936 31.5887C2.15472 31.6731 2.97104 31.6762 25.1152 31.6762C47.2166 31.6762 48.0763 31.6729 48.3511 31.5892C49.03 31.3822 49.6019 30.9217 49.91 30.3341C50.2577 29.6707 50.2299 30.9083 50.2299 16.0896C50.2299 1.36444 50.2547 2.53836 49.9306 1.87791C49.7312 1.47141 49.3072 1.04827 48.8694 0.81881C48.2005 0.468155 50.4278 0.49774 25.0914 0.502734C12.5341 0.505208 2.17427 0.524329 2.06962 0.545211ZM48.4355 1.33918C48.8358 1.52878 49.212 1.89584 49.4004 2.28055L49.5402 2.56595V16.0746L49.5402 29.5833L49.3925 29.8949C49.1267 30.456 48.5873 30.877 47.9942 30.9863C47.819 31.0186 40.1968 31.0305 24.9486 31.0224L2.16475 31.0103L1.89587 30.9016C1.37435 30.6907 0.962198 30.2786 0.751339 29.757L0.642651 29.4882L0.628904 16.36C0.619819 7.66447 0.631472 3.10758 0.663484 2.8638C0.766892 2.07611 1.27884 1.48111 2.06962 1.22944C2.22274 1.18069 6.73597 1.17061 25.1866 1.17769L48.1133 1.18654L48.4355 1.33918ZM14.4704 10.136C14.2724 10.2347 14.1413 10.4006 14.0794 10.6307C14.0473 10.7495 14.0351 12.6464 14.0435 16.2016L14.0562 21.5922L14.165 21.7672C14.2297 21.8712 14.3581 21.983 14.4813 22.0427C14.6841 22.1409 14.7353 22.1428 16.7033 22.1288C18.5633 22.1155 18.7377 22.1072 18.9792 22.021C19.3921 21.8736 19.7754 21.582 20.0762 21.1865C20.392 20.7713 22.3935 18.0519 22.8933 17.3589L23.2364 16.8832L23.2602 18.5243C23.2837 20.1442 23.2854 20.1676 23.3958 20.3451C23.4573 20.4441 23.5902 20.5671 23.6912 20.6186C23.8651 20.7074 23.9776 20.7122 25.8387 20.7111C26.9893 20.7104 27.8891 20.69 28.0114 20.6618C28.3489 20.584 28.7123 20.3889 28.9798 20.1417C29.1172 20.0148 29.7327 19.2255 30.3475 18.3876C30.9622 17.5498 31.4813 16.8632 31.5009 16.8618C31.5206 16.8605 31.5366 17.92 31.5366 19.2163C31.5366 21.8302 31.5253 21.7316 31.8539 21.9822L32.0286 22.1155L33.8483 22.1155C35.62 22.1155 35.6714 22.1129 35.8022 22.016C35.876 21.9612 35.9846 21.8457 36.0435 21.7592L36.1505 21.6019V16.1104C36.1505 9.9403 36.1782 10.3993 35.7921 10.173L35.5889 10.0539L33.4082 10.0676L31.2274 10.0813L30.9896 10.2079C30.8588 10.2775 30.6847 10.4059 30.6027 10.4933C30.5207 10.5806 29.904 11.3906 29.2323 12.2931C28.5606 13.1957 27.9909 13.9413 27.9663 13.95C27.939 13.9597 27.9216 13.3113 27.9216 12.2803C27.9216 10.6107 27.9206 10.5934 27.8146 10.4376C27.7557 10.3511 27.6472 10.2356 27.5733 10.1808C27.4425 10.0839 27.3844 10.081 25.314 10.0673C23.8283 10.0575 23.1297 10.0696 22.9924 10.1076C22.6569 10.2002 22.4167 10.4024 22.029 10.9183C21.5123 11.6057 20.122 13.4824 19.3826 14.4904C19.043 14.9534 18.7497 15.3333 18.7308 15.3347C18.7119 15.3362 18.6905 14.258 18.6832 12.9387C18.6704 10.6009 18.6676 10.5368 18.572 10.4088C18.518 10.3366 18.4148 10.2334 18.3426 10.1794C18.2162 10.0849 18.1455 10.0809 16.4192 10.0696C14.8377 10.0593 14.6086 10.0671 14.4704 10.136ZM18.0164 13.5324L18.0287 16.3176L17.517 17.0051C17.2355 17.3833 16.4916 18.3866 15.8637 19.2347L14.7221 20.7768L14.7098 15.8096C14.7031 13.0776 14.7079 10.8154 14.7205 10.7823C14.7385 10.7352 15.095 10.7249 16.3738 10.7347L18.0041 10.7473L18.0164 13.5324ZM27.3033 13.1881V14.8862L26.4114 16.08C25.9209 16.7366 25.1771 17.7363 24.7585 18.3015C24.3399 18.8667 23.9814 19.33 23.9618 19.331C23.9421 19.332 23.9261 18.5705 23.9261 17.6387V15.9445L24.1784 15.6052C24.8247 14.7364 26.4405 12.5376 27.0198 11.739C27.1364 11.5782 27.2479 11.4564 27.2676 11.4683C27.2872 11.4803 27.3033 12.2542 27.3033 13.1881Z" fill="#E8331A"/>
</svg>
